<svg width="26" height="26" viewBox="0 0 26 26" fill="none" xmlns="http://www.w3.org/2000/svg">
<path d="M14.285 0.501294C15.1972 0.497794 16.1093 0.506961 17.0212 0.528794L17.2637 0.537544C17.5437 0.547544 17.82 0.560044 18.1537 0.575044C19.4837 0.637544 20.3912 0.847544 21.1875 1.15629C22.0125 1.47379 22.7075 1.90379 23.4025 2.59879C24.038 3.2233 24.5298 3.97873 24.8437 4.81254C25.1525 5.60879 25.3625 6.51754 25.425 7.84754C25.44 8.18004 25.4525 8.45754 25.4625 8.73754L25.47 8.98004C25.4922 9.89153 25.5018 10.8033 25.4987 11.715L25.5 12.6475V14.285C25.5031 15.1972 25.4935 16.1094 25.4712 17.0213L25.4637 17.2638C25.4537 17.5438 25.4412 17.82 25.4262 18.1538C25.3637 19.4838 25.1512 20.3913 24.8437 21.1875C24.5308 22.0222 24.0389 22.7783 23.4025 23.4025C22.7775 24.0379 22.0216 24.5297 21.1875 24.8438C20.3912 25.1525 19.4837 25.3625 18.1537 25.425C17.82 25.44 17.5437 25.4525 17.2637 25.4625L17.0212 25.47C16.1093 25.4923 15.1972 25.5019 14.285 25.4988L13.3525 25.5H11.7162C10.8041 25.5031 9.8919 25.4935 8.98 25.4713L8.7375 25.4638C8.44076 25.453 8.14409 25.4405 7.8475 25.4263C6.5175 25.3638 5.61 25.1513 4.8125 24.8438C3.97835 24.5305 3.22279 24.0386 2.59875 23.4025C1.96255 22.7779 1.47028 22.022 1.15625 21.1875C0.847497 20.3913 0.637496 19.4838 0.574996 18.1538C0.561075 17.8572 0.548575 17.5605 0.537496 17.2638L0.531247 17.0213C0.508201 16.1094 0.497783 15.1972 0.499996 14.285V11.715C0.496508 10.8033 0.505675 9.89154 0.527497 8.98004L0.536247 8.73754C0.546247 8.45754 0.558746 8.18004 0.573746 7.84754C0.636246 6.51629 0.846246 5.61004 1.155 4.81254C1.46921 3.97832 1.96245 3.2231 2.6 2.60004C3.22361 1.96348 3.9787 1.47076 4.8125 1.15629C5.61 0.847544 6.51625 0.637544 7.8475 0.575044L8.7375 0.537544L8.98 0.531294C9.89148 0.50826 10.8032 0.497842 11.715 0.500044L14.285 0.501294ZM13 6.75129C12.1719 6.73958 11.3497 6.89257 10.5812 7.20138C9.81274 7.51018 9.11331 7.96864 8.52355 8.55011C7.9338 9.13158 7.4655 9.82447 7.14586 10.5885C6.82621 11.3525 6.66161 12.1725 6.66161 13.0007C6.66161 13.8289 6.82621 14.6488 7.14586 15.4128C7.4655 16.1769 7.9338 16.8698 8.52355 17.4512C9.11331 18.0327 9.81274 18.4912 10.5812 18.8C11.3497 19.1088 12.1719 19.2618 13 19.25C14.6576 19.25 16.2473 18.5916 17.4194 17.4195C18.5915 16.2474 19.25 14.6576 19.25 13C19.25 11.3424 18.5915 9.75273 17.4194 8.58063C16.2473 7.40852 14.6576 6.75129 13 6.75129ZM13 9.25129C13.4981 9.24212 13.9931 9.33229 14.456 9.51655C14.9189 9.70082 15.3404 9.97547 15.696 10.3245C16.0515 10.6735 16.334 11.0898 16.5268 11.5492C16.7196 12.0086 16.819 12.5018 16.8191 13C16.8192 13.4983 16.72 13.9915 16.5273 14.4509C16.3346 14.9104 16.0523 15.3268 15.6969 15.676C15.3414 16.0251 14.92 16.2999 14.4572 16.4843C13.9943 16.6687 13.4994 16.7591 13.0012 16.75C12.0067 16.75 11.0529 16.355 10.3496 15.6517C9.64633 14.9484 9.25125 13.9946 9.25125 13C9.25125 12.0055 9.64633 11.0517 10.3496 10.3484C11.0529 9.64513 12.0067 9.25004 13.0012 9.25004L13 9.25129ZM19.5625 4.87629C19.1592 4.89243 18.7779 5.06398 18.4983 5.35501C18.2186 5.64603 18.0625 6.03396 18.0625 6.43754C18.0625 6.84113 18.2186 7.22905 18.4983 7.52008C18.7779 7.81111 19.1592 7.98265 19.5625 7.99879C19.9769 7.99879 20.3743 7.83417 20.6674 7.54115C20.9604 7.24812 21.125 6.85069 21.125 6.43629C21.125 6.02189 20.9604 5.62447 20.6674 5.33144C20.3743 5.03841 19.9769 4.87379 19.5625 4.87379V4.87629Z" fill="white"/>
</svg>
