<svg width="35" height="39" viewBox="0 0 35 39" fill="none" xmlns="http://www.w3.org/2000/svg">
<path d="M23.6851 0.493838C16.055 -1.36858 8.44494 3.10017 6.22761 10.515L1.09185 14.687C0.452966 15.1959 0.6917 16.3264 1.54174 16.5339L4.57762 17.2749L3.09558 23.3467C2.54723 25.5932 3.90885 27.8342 6.15539 28.3825L8.17931 28.8765L6.69727 34.9483L20.8647 38.4063L23.1816 28.9142C28.5316 27.8182 33.0112 23.7863 34.3945 18.1193C36.3013 10.307 31.5379 2.4106 23.6851 0.493838ZM20.2749 23.2509L16.2271 22.2629L16.7211 20.239L20.7689 21.227L20.2749 23.2509ZM25.7362 14.9337C24.9751 15.7122 24.0237 16.2784 22.9764 16.5761L22.2749 19.4501L16.2032 17.9681L16.9047 15.0941C14.4205 12.7078 14.3126 8.75704 16.6939 6.29311C19.0753 3.82918 23.0561 3.68573 25.5453 6.05177C28.0344 8.41782 28.1324 12.4091 25.7362 14.9337Z" fill="white"/>
</svg>
