<svg width="36" height="44" viewBox="0 0 36 44" fill="none" xmlns="http://www.w3.org/2000/svg">
<path d="M33.625 0.90625H7.0625C5.1977 0.90625 3.40927 1.64704 2.09066 2.96566C0.77204 4.28427 0.03125 6.0727 0.03125 7.9375V40.75C0.03125 41.3716 0.27818 41.9677 0.717718 42.4073C1.15726 42.8468 1.7534 43.0938 2.375 43.0938H30.5C31.1216 43.0938 31.7177 42.8468 32.1573 42.4073C32.5968 41.9677 32.8438 41.3716 32.8438 40.75C32.8438 40.1284 32.5968 39.5323 32.1573 39.0927C31.7177 38.6532 31.1216 38.4062 30.5 38.4062H4.71875V37.625C4.71875 37.0034 4.96568 36.4073 5.40522 35.9677C5.84476 35.5282 6.4409 35.2812 7.0625 35.2812H33.625C34.2466 35.2812 34.8427 35.0343 35.2823 34.5948C35.7218 34.1552 35.9688 33.5591 35.9688 32.9375V3.25C35.9688 2.6284 35.7218 2.03226 35.2823 1.59272C34.8427 1.15318 34.2466 0.90625 33.625 0.90625ZM31.2812 30.5938H7.0625C6.26394 30.5922 5.47109 30.7283 4.71875 30.9961V7.9375C4.71875 7.3159 4.96568 6.71976 5.40522 6.28022C5.84476 5.84068 6.4409 5.59375 7.0625 5.59375H31.2812V30.5938Z" fill="white"/>
</svg>
