<svg width="43" height="38" viewBox="0 0 43 38" fill="none" xmlns="http://www.w3.org/2000/svg">
<path d="M34 25.25H29.8333V29.4167H34M34 16.9167H29.8333V21.0833H34M38.1667 33.5833H21.5V29.4167H25.6667V25.25H21.5V21.0833H25.6667V16.9167H21.5V12.75H38.1667M17.3333 8.58333H13.1667V4.41667H17.3333M17.3333 16.9167H13.1667V12.75H17.3333M17.3333 25.25H13.1667V21.0833H17.3333M17.3333 33.5833H13.1667V29.4167H17.3333M8.99999 8.58333H4.83332V4.41667H8.99999M8.99999 16.9167H4.83332V12.75H8.99999M8.99999 25.25H4.83332V21.0833H8.99999M8.99999 33.5833H4.83332V29.4167H8.99999M21.5 8.58333V0.25H0.666656V37.75H42.3333V8.58333H21.5Z" fill="white"/>
</svg>
