<svg width="27" height="43" viewBox="0 0 27 43" fill="none" xmlns="http://www.w3.org/2000/svg">
<path fill-rule="evenodd" clip-rule="evenodd" d="M8.20001 0.166626H20.7C20.9763 0.166626 21.2412 0.276373 21.4366 0.471723C21.6319 0.667074 21.7417 0.932025 21.7417 1.20829V1.72913H22.8333V0.166626H27V7.45829H22.8333V5.89579H21.7417V6.41663C21.7417 6.69289 21.6319 6.95784 21.4366 7.15319C21.2412 7.34855 20.9763 7.45829 20.7 7.45829H17.9229V17.0968L19.1625 18.3364V39.0062C19.1625 39.835 18.8333 40.6299 18.2472 41.2159C17.6612 41.802 16.8663 42.1312 16.0375 42.1312H14.0042C13.1754 42.1312 12.3805 41.802 11.7945 41.2159C11.2084 40.6299 10.8792 39.835 10.8792 39.0062V18.3364L12.1188 17.0968V7.45829H10.2833C9.73081 7.45829 9.2009 7.2388 8.8102 6.8481C8.4195 6.4574 8.20001 5.92749 8.20001 5.37496V2.24996C6.82736 2.26314 5.51541 2.81768 4.54944 3.79301C3.58348 4.76834 3.04161 6.08558 3.04168 7.45829H0.958344C0.958298 5.53305 1.71966 3.68593 3.07631 2.3199C4.43297 0.953879 6.27482 0.179828 8.20001 0.166626ZM19.6583 2.24996H10.2833V5.37496H19.6583V2.24996ZM14.2021 7.45829H15.8396V17.9583L17.0792 19.1989V39.0062C17.0792 39.2825 16.9694 39.5474 16.7741 39.7428C16.5787 39.9381 16.3138 40.0479 16.0375 40.0479H14.0042C13.7279 40.0479 13.463 39.9381 13.2676 39.7428C13.0723 39.5474 12.9625 39.2825 12.9625 39.0062V19.1979L14.2021 17.9583V7.45829Z" fill="white"/>
</svg>
