<svg width="38" height="22" viewBox="0 0 38 22" fill="none" xmlns="http://www.w3.org/2000/svg">
<path d="M2.33334 21.4167C1.74306 21.4167 1.24792 21.2167 0.847924 20.8167C0.447924 20.4167 0.248618 19.9222 0.250007 19.3333C0.250007 18.743 0.450007 18.2479 0.850007 17.8479C1.25001 17.4479 1.74445 17.2486 2.33334 17.25C2.92362 17.25 3.41876 17.45 3.81876 17.85C4.21876 18.25 4.41806 18.7444 4.41667 19.3333C4.41667 19.9236 4.21667 20.4187 3.81667 20.8187C3.41667 21.2187 2.92223 21.418 2.33334 21.4167ZM2.33334 13.0833C1.74306 13.0833 1.24792 12.8833 0.847924 12.4833C0.447924 12.0833 0.248618 11.5889 0.250007 11C0.250007 10.4097 0.450007 9.91457 0.850007 9.51457C1.25001 9.11457 1.74445 8.91526 2.33334 8.91665C2.92362 8.91665 3.41876 9.11665 3.81876 9.51665C4.21876 9.91665 4.41806 10.4111 4.41667 11C4.41667 11.5903 4.21667 12.0854 3.81667 12.4854C3.41667 12.8854 2.92223 13.0847 2.33334 13.0833ZM2.33334 4.74999C1.74306 4.74999 1.24792 4.54999 0.847924 4.14999C0.447924 3.74999 0.248618 3.25554 0.250007 2.66665C0.250007 2.07638 0.450007 1.58124 0.850007 1.18124C1.25001 0.781237 1.74445 0.581931 2.33334 0.58332C2.92362 0.58332 3.41876 0.78332 3.81876 1.18332C4.21876 1.58332 4.41806 2.07776 4.41667 2.66665C4.41667 3.25693 4.21667 3.75207 3.81667 4.15207C3.41667 4.55207 2.92223 4.75138 2.33334 4.74999ZM8.58334 21.4167V17.25H37.75V21.4167H8.58334ZM8.58334 13.0833V8.91665H37.75V13.0833H8.58334ZM8.58334 4.74999V0.58332H37.75V4.74999H8.58334Z" fill="white"/>
</svg>
