<svg width="41" height="41" viewBox="0 0 41 41" fill="none" xmlns="http://www.w3.org/2000/svg">
<path d="M21 18.2325L23.7075 15.525C22.61 14.135 21.745 12.41 21.0525 10.615C20.19 8.37253 19.5675 5.92253 19.1175 3.67253C19.0478 3.32311 18.9812 2.97309 18.9175 2.62253C15.4469 3.03382 12.1803 4.47983 9.54251 6.77253L21 18.2325ZM25.475 17.2925L22.7675 20L34.2275 31.46C36.5201 28.8222 37.9661 25.5556 38.3775 22.085C38.0286 22.0221 37.6803 21.9563 37.3325 21.8875C35.0825 21.4375 32.6325 20.8125 30.39 19.95C28.5925 19.26 26.865 18.3925 25.475 17.2925ZM38.495 19.5675C38.3997 15.5077 36.8904 11.6085 34.2275 8.54253L27.2575 15.51C28.3325 16.31 29.715 17.0125 31.2875 17.6175C33.3525 18.4125 35.655 19.0025 37.8225 19.4375L38.495 19.5675ZM25.49 13.7425L32.46 6.77253C29.394 4.10965 25.4948 2.60035 21.435 2.50503L21.5675 3.18003C22.0025 5.35003 22.5925 7.65253 23.3875 9.71753C23.99 11.2875 24.69 12.6675 25.49 13.7425ZM21 21.765L18.2975 24.4675C19.3975 25.8575 20.2625 27.585 20.955 29.3825C21.8175 31.625 22.4425 34.075 22.8925 36.325C22.9625 36.68 23.03 37.03 23.0925 37.375C26.5605 36.9623 29.8243 35.5164 32.46 33.225L21 21.765ZM16.515 26.25L9.54001 33.225C12.6073 35.889 16.5085 37.3984 20.57 37.4925C20.53 37.2675 20.485 37.0425 20.44 36.815C20.005 34.645 19.415 32.345 18.62 30.28C18.0175 28.7075 17.315 27.3275 16.515 26.2525V26.25ZM14.745 24.485C13.67 23.685 12.29 22.985 10.72 22.38C8.65501 21.585 6.35251 20.9925 4.18501 20.56C3.9586 20.5145 3.73193 20.4704 3.50501 20.4275C3.59918 24.4891 5.10854 28.3902 7.77251 31.4575L14.7475 24.4825L14.745 24.485ZM16.5275 22.7L19.2325 20L7.77251 8.54003C5.48072 11.1764 4.03476 14.4412 3.62251 17.91C3.97001 17.9725 4.32001 18.04 4.67501 18.11C6.92501 18.56 9.37501 19.185 11.6175 20.0475C13.4125 20.7375 15.14 21.605 16.5275 22.7025V22.7ZM35.1425 34.14C33.2895 36.0158 31.084 37.5067 28.6527 38.5268C26.2214 39.547 23.6124 40.0764 20.9757 40.0845C18.3391 40.0927 15.7269 39.5794 13.2894 38.5742C10.8518 37.569 8.63712 36.0917 6.77264 34.2274C4.90817 32.3631 3.43072 30.1485 2.42531 27.7111C1.41989 25.2736 0.906357 22.6615 0.914244 20.0248C0.92213 17.3882 1.45128 14.7791 2.47126 12.3477C3.49124 9.91635 4.98191 7.71065 6.85751 5.85753C10.6083 2.1067 15.6955 -0.000488321 21 -0.000488281C26.3045 -0.000488242 31.3917 2.1067 35.1425 5.85753C38.8933 9.60835 41.0005 14.6956 41.0005 20C41.0005 25.3045 38.8933 30.3892 35.1425 34.14Z" fill="white"/>
</svg>
