<svg width="39" height="46" viewBox="0 0 39 46" fill="none" xmlns="http://www.w3.org/2000/svg">
<path d="M15.125 12.375C14.0781 12.375 13.2031 13.0937 12.9688 14.0625C12.8906 14.3281 13.1094 14.6094 13.3906 14.6094H14.0781C14.0214 14.3982 14.0139 14.1768 14.0563 13.9622C14.0988 13.7477 14.19 13.5458 14.3229 13.3721C14.4558 13.1985 14.6268 13.0577 14.8228 12.9606C15.0188 12.8636 15.2344 12.8129 15.4531 12.8125C16.25 12.8125 16.875 13.4531 16.875 14.2344C16.875 14.3594 16.8594 14.4844 16.8281 14.6094H16.9531C17.1875 14.6094 17.3594 14.4063 17.3125 14.1719C17.1094 13.1406 16.2031 12.375 15.125 12.375ZM22.7656 12.375C23.8125 12.375 24.6875 13.0937 24.9219 14.0625C24.9844 14.3438 24.7812 14.6094 24.5 14.6094H23.8125C23.8693 14.3982 23.8767 14.1768 23.8343 13.9622C23.7919 13.7477 23.7007 13.5458 23.5678 13.3721C23.4349 13.1985 23.2638 13.0577 23.0678 12.9606C22.8719 12.8636 22.6562 12.8129 22.4375 12.8125C22.2502 12.8104 22.0644 12.8458 21.8909 12.9165C21.7175 12.9872 21.5599 13.0918 21.4274 13.2243C21.295 13.3567 21.1903 13.5143 21.1196 13.6878C21.0489 13.8612 21.0135 14.0471 21.0156 14.2344C21.0156 14.3594 21.0313 14.4844 21.0625 14.6094H20.9375C20.883 14.6107 20.8288 14.5996 20.7792 14.5768C20.7296 14.5541 20.6858 14.5204 20.6512 14.4782C20.6165 14.436 20.592 14.3866 20.5793 14.3335C20.5667 14.2804 20.5662 14.2251 20.5781 14.1719C20.7812 13.1406 21.6719 12.375 22.7656 12.375Z" fill="white"/>
<path d="M15.4531 13.4062C15.5932 13.4047 15.7313 13.4398 15.8537 13.508C15.9761 13.5761 16.0787 13.675 16.1512 13.7949C16.2238 13.9148 16.2638 14.0515 16.2675 14.1915C16.2711 14.3316 16.2381 14.4702 16.1719 14.5937H14.7344C14.6691 14.4692 14.6372 14.33 14.6416 14.1896C14.6459 14.0492 14.6865 13.9122 14.7594 13.7921C14.7788 13.8221 14.8044 13.8477 14.8345 13.867C14.8645 13.8863 14.8984 13.8989 14.9338 13.904C14.9692 13.9091 15.0052 13.9065 15.0396 13.8965C15.0739 13.8865 15.1056 13.8692 15.1327 13.8458C15.1598 13.8225 15.1815 13.7936 15.1965 13.7611C15.2114 13.7287 15.2192 13.6934 15.2194 13.6576C15.2196 13.6219 15.2121 13.5865 15.1974 13.5539C15.1827 13.5213 15.1612 13.4923 15.1344 13.4687C15.2354 13.4268 15.3438 13.4056 15.4531 13.4062ZM22.4375 13.4062C22.336 13.406 22.2354 13.4245 22.1406 13.4609C22.1695 13.4844 22.1927 13.5141 22.2087 13.5478C22.2246 13.5815 22.2328 13.6183 22.2326 13.6555C22.2325 13.6928 22.224 13.7295 22.2079 13.7631C22.1917 13.7967 22.1682 13.8262 22.1392 13.8495C22.1101 13.8728 22.0763 13.8894 22.04 13.8979C22.0037 13.9065 21.966 13.9068 21.9296 13.8989C21.8932 13.891 21.859 13.8751 21.8296 13.8523C21.8001 13.8295 21.7761 13.8004 21.7594 13.7671C21.6795 13.8887 21.6336 14.0295 21.6264 14.1749C21.6193 14.3202 21.6512 14.4648 21.7188 14.5937H23.1563C23.2225 14.4702 23.2555 14.3316 23.2518 14.1915C23.2482 14.0515 23.2082 13.9148 23.1356 13.7949C23.0631 13.675 22.9605 13.5761 22.8381 13.508C22.7157 13.4398 22.5776 13.4047 22.4375 13.4062ZM18.4531 14.1093L17.625 16.7812C17.4531 17.328 17.8594 17.8905 18.4375 17.8905H19.6562C20.2344 17.8905 20.6406 17.328 20.4687 16.7812L19.6406 14.1093C19.4687 13.5155 18.6406 13.5155 18.4531 14.1093ZM16.625 18.8124C17.2969 19.1718 18.0937 19.3749 18.9375 19.3749C19.7969 19.3749 20.5781 19.1718 21.25 18.8124C21.4687 18.703 21.7188 18.953 21.5781 19.1718C21.0156 20.0312 20.0469 20.6093 18.9375 20.6093C17.8281 20.6093 16.8594 20.0312 16.2969 19.1718C16.1562 18.953 16.3906 18.6874 16.625 18.8124Z" fill="white"/>
<path d="M26.4062 2.77808C24.9844 1.38745 22.8281 0.832764 20.5781 0.832764H17.2812C15.0312 0.832764 12.875 1.38589 11.4531 2.77808C10.3594 3.84683 9.76562 5.8062 10.2031 8.00933L10.3094 7.99683C10.1031 8.17183 9.89844 8.3562 9.69687 8.54839L9.175 9.0437L9.93281 9.98589L9.95312 10.8359C9.95625 10.9609 9.9625 11.0859 9.97031 11.2109L9.99375 11.5453C9.38864 11.8346 8.88455 12.2993 8.54696 12.8789C8.20938 13.4585 8.0539 14.1262 8.10075 14.7953C8.14759 15.4644 8.39458 16.104 8.80963 16.6309C9.22468 17.1578 9.7886 17.5477 10.4281 17.75L10.5797 19.9296L10.5812 19.95C10.6516 20.6671 10.8359 21.3375 11.1141 21.9468C11.2812 22.3125 11.4828 22.6562 11.7156 22.9734L11.1562 23.2C8.09501 24.6557 5.51138 26.9528 3.70736 29.8226C1.90334 32.6924 0.95346 36.0165 0.968749 39.4062V44.875C0.968749 45.0822 1.05106 45.2809 1.19757 45.4274C1.34408 45.5739 1.5428 45.6562 1.75 45.6562H36.1094C36.1797 45.6562 36.25 45.6453 36.3187 45.625H36.3281C36.8959 45.625 37.4403 45.3994 37.8418 44.998C38.2432 44.5965 38.4688 44.0521 38.4688 43.4843V37.9968C38.4687 37.9107 38.4635 37.8246 38.4531 37.739V34.8406C38.4522 34.4715 38.3643 34.1079 38.1965 33.7791C38.0288 33.4504 37.7859 33.1658 37.4876 32.9485C37.1893 32.7311 36.844 32.5872 36.4796 32.5283C36.1153 32.4693 35.7422 32.4971 35.3906 32.6093V30.9156C35.3906 30.7593 35.4844 30.6031 35.625 30.525C36.8594 29.8687 37.6875 28.5718 37.6875 27.0875C37.6719 25.6343 36.8438 24.3375 35.625 23.6812C35.3281 23.525 34.9531 23.7281 34.9531 24.0718V26.4937C34.9531 27.15 34.4219 27.6968 33.7656 27.6812C33.4596 27.675 33.1683 27.5486 32.9549 27.3293C32.7414 27.11 32.6229 26.8154 32.625 26.5093V24.0718C32.625 23.7281 32.25 23.5093 31.9531 23.6656C31.3855 23.9695 30.9025 24.4101 30.5478 24.9475C30.1932 25.4849 29.9781 26.1023 29.9219 26.7437V27.4453C30.0453 28.7968 30.875 29.9578 32.0312 30.5562C32.1719 30.6343 32.2656 30.7906 32.2656 30.9468V35.8593H31.1719C31.1049 35.8596 31.0382 35.8686 30.9734 35.8859C30.5893 35.9246 30.2244 36.0726 29.9219 36.3125V30.9171C29.2953 30.287 28.8329 29.5127 28.5755 28.6622C28.318 27.8116 28.2733 26.9109 28.4453 26.039L28.4578 26.0484C28.5606 25.5197 28.7417 25.0094 28.9953 24.5343C28.2641 24.0343 27.4984 23.5859 26.7031 23.1968L26.7234 23.1687C26.5193 23.1041 26.3117 23.0509 26.1016 23.0093C26.7595 22.1141 27.1609 21.0563 27.2625 19.95V19.9296L27.4156 17.7562C28.0594 17.5566 28.6278 17.167 29.0463 16.6387C29.4649 16.1103 29.7139 15.4679 29.7609 14.7955C29.8079 14.1231 29.6505 13.4522 29.3095 12.8708C28.9685 12.2894 28.4598 11.8246 27.85 11.5375L27.8734 11.2093C27.8812 11.0937 27.8875 10.9781 27.8906 10.8625L27.9141 10.0781L28.7469 9.0437L28.225 8.54839C28.0289 8.36171 27.8272 8.1809 27.6203 8.0062L27.6562 8.00933C28.0937 5.8187 27.5 3.84683 26.4062 2.77808ZM26.2531 11.9859L25.7062 19.8093C25.4734 22.15 23.6453 23.7812 21.4375 23.7812H16.4062C15.6495 23.7864 14.9054 23.5876 14.2521 23.2057C13.5988 22.8238 13.0605 22.2729 12.6937 21.6109C12.3863 21.0551 12.1969 20.4417 12.1375 19.8093L11.5906 11.9843C12.0578 12.0265 12.5406 11.9375 12.9766 11.7046L12.9937 11.6953C13.1517 11.8439 13.3613 11.9251 13.5781 11.9218C13.75 11.9218 13.9375 11.875 14.0937 11.7656C14.125 11.7343 14.9062 11.1562 16.0781 11.3125C16.2047 11.3275 16.333 11.3142 16.4538 11.2735C16.5746 11.2328 16.6849 11.1658 16.7765 11.0772C16.8682 10.9887 16.9391 10.8809 16.9839 10.7616C17.0288 10.6423 17.0466 10.5145 17.0359 10.3875C18.2969 10.2031 19.5781 10.2031 20.8391 10.3875C20.8284 10.5145 20.8462 10.6423 20.8911 10.7616C20.9359 10.8809 21.0068 10.9887 21.0985 11.0772C21.1901 11.1658 21.3004 11.2328 21.4212 11.2735C21.542 11.3142 21.6703 11.3275 21.7969 11.3125C22.9203 11.1765 23.6875 11.7031 23.775 11.7609L23.7812 11.7656C23.9375 11.875 24.1094 11.9375 24.2969 11.9375C24.5174 11.933 24.7291 11.8499 24.8937 11.7031C25.3219 11.9359 25.7953 12.025 26.2531 11.9859ZM27.5422 15.9468L27.7234 13.3468C27.8909 13.5252 28.0198 13.7363 28.1019 13.9668C28.184 14.1973 28.2176 14.4423 28.2005 14.6864C28.1835 14.9305 28.1163 15.1685 28.003 15.3854C27.8897 15.6022 27.7328 15.7934 27.5422 15.9468ZM10.3 15.9343C10.114 15.7808 9.9612 15.5911 9.85085 15.3766C9.74051 15.1622 9.67494 14.9275 9.65813 14.687C9.64132 14.4464 9.67363 14.2049 9.75308 13.9772C9.83254 13.7495 9.95748 13.5403 10.1203 13.3625L10.3 15.9343ZM22.7344 25.2015C23.3312 25.0671 23.8937 24.8421 24.4062 24.539V30.9375C24.4062 30.9687 24.3984 30.9843 24.3937 30.9937C24.3847 31.007 24.3723 31.0178 24.3578 31.025C24.3434 31.0326 24.3272 31.0364 24.3109 31.0359C24.3001 31.0355 24.2894 31.0329 24.2797 31.0281L20.3984 27.6765C20.9447 27.4593 21.4369 27.1251 21.8404 26.6976C22.2439 26.2701 22.549 25.7594 22.7344 25.2015ZM20.5437 25.3437H20.9344C20.71 25.6663 20.411 25.9299 20.0627 26.1119C19.7145 26.294 19.3273 26.389 18.9344 26.389C18.5414 26.389 18.1543 26.294 17.806 26.1119C17.4578 25.9299 17.1587 25.6663 16.9344 25.3437H20.5437ZM13.4687 24.5578C13.9812 24.8562 14.5422 25.0781 15.1375 25.2078C15.3215 25.7658 15.6262 26.2765 16.0299 26.7035C16.4337 27.1304 16.9265 27.4632 17.4734 27.6781L13.5937 31.0281C13.5845 31.0327 13.5744 31.0353 13.5641 31.0359C13.5478 31.0364 13.5316 31.0326 13.5172 31.025C13.5027 31.0178 13.4903 31.007 13.4812 30.9937C13.4717 30.9766 13.4673 30.957 13.4687 30.9375V24.5578ZM13.5172 7.77651C15.222 6.98326 17.0796 6.57212 18.96 6.57185C20.8403 6.57158 22.698 6.98219 24.4031 7.77495C25.1859 8.1437 25.9078 8.60464 26.6156 9.20151L26.4375 9.42026L26.4344 9.42651C26.3186 9.5705 26.1556 9.66882 25.9743 9.704C25.7929 9.73918 25.6049 9.70896 25.4437 9.6187H25.4406C23.4568 8.53278 21.2303 7.96676 18.9688 7.97339C16.7073 7.96628 14.4809 8.53176 12.4969 9.61714L12.4937 9.62026C12.3281 9.71041 12.136 9.73962 11.951 9.70279C11.766 9.66596 11.5998 9.56543 11.4812 9.4187L11.3062 9.19995C11.9717 8.62533 12.7143 8.14672 13.5125 7.77808L13.5172 7.77495V7.77651ZM26.6875 24.9453V33.2968C26.6875 33.6562 26.4062 33.9375 26.0469 33.9375H11.875C11.5156 33.9375 11.2344 33.6562 11.2344 33.2968V24.9093C11.4547 24.7921 11.6797 24.6812 11.9062 24.575V30.9375C11.9062 32.2921 13.4187 33.0625 14.5125 32.2968L14.5437 32.2734L18.8 28.5968C18.8383 28.5639 18.887 28.5459 18.9375 28.5459C18.988 28.5459 19.0367 28.5639 19.075 28.5968L23.3312 32.2734L23.3625 32.2953C24.4562 33.064 25.9687 32.2921 25.9687 30.9375V24.5812C26.2109 24.6968 26.4516 24.8171 26.6875 24.9453ZM8 27.1515V44.0937H2.53125V39.4062C2.52159 37.0925 3.00423 34.8033 3.9471 32.6905C4.88997 30.5776 6.27151 28.6895 8 27.1515ZM36.8906 35.7921H35.3906V34.5375C35.4509 34.3964 35.551 34.2761 35.6786 34.1911C35.8063 34.1062 35.956 34.0604 36.1094 34.0593C36.5375 34.0593 36.8906 34.4124 36.8906 34.8406V35.7921ZM31.1719 44.0625C30.9297 44.0625 30.7594 43.8781 30.75 43.6937C30.7491 43.6239 30.7653 43.555 30.7972 43.4929C30.8291 43.4308 30.8756 43.3774 30.9328 43.3375C31.0416 43.2649 31.1305 43.1662 31.1913 43.0503C31.252 42.9345 31.2827 42.8052 31.2805 42.6744C31.2784 42.5437 31.2434 42.4155 31.1788 42.3018C31.1142 42.188 31.0221 42.0923 30.9109 42.0234C30.8599 41.991 30.8182 41.9459 30.79 41.8924C30.7617 41.839 30.748 41.7791 30.75 41.7187C30.75 41.5968 30.8187 41.475 30.9266 41.4062C31.0371 41.3344 31.1276 41.2359 31.1898 41.1197C31.252 41.0035 31.2838 40.8735 31.2823 40.7417C31.2807 40.61 31.2458 40.4807 31.1809 40.3661C31.116 40.2514 31.0231 40.155 30.9109 40.0859C30.8599 40.0535 30.8182 40.0084 30.79 39.9549C30.7617 39.9015 30.748 39.8416 30.75 39.7812C30.75 39.6593 30.8187 39.5375 30.9266 39.4687C31.0352 39.3981 31.1246 39.3016 31.1867 39.1879C31.2488 39.0742 31.2816 38.9468 31.2822 38.8173C31.2829 38.6877 31.2513 38.56 31.1903 38.4457C31.1293 38.3314 31.0408 38.2341 30.9328 38.1625C30.8761 38.1268 30.8295 38.0772 30.7975 38.0184C30.7655 37.9596 30.7491 37.8935 30.75 37.8265V37.8156C30.7547 37.6281 30.9266 37.4375 31.1719 37.4375C31.2243 37.4375 31.2767 37.4323 31.3281 37.4218H36.3281C36.6094 37.4218 36.8438 37.6218 36.8953 37.8875L36.9062 38.0031V43.4843C36.9062 43.6377 36.8453 43.7847 36.7369 43.8931C36.6285 44.0015 36.4814 44.0625 36.3281 44.0625H31.1719ZM16.9062 38.2187C16.9062 39.3437 16.0156 40.2343 14.8906 40.2343H12.625C11.5156 40.2343 10.6094 39.3281 10.6094 38.2187C10.6094 37.1093 11.5156 36.2031 12.625 36.2031H14.8906C16 36.2031 16.9062 37.1093 16.9062 38.2187Z" fill="white"/>
</svg>
